<mxfile host="app.diagrams.net" modified="2023-06-17T11:15:57.083Z" agent="Mozilla/5.0 (Windows NT 10.0; Win64; x64) AppleWebKit/537.36 (KHTML, like Gecko) Chrome/114.0.0.0 Safari/537.36" etag="HpkxnH1PrRsnADkhdJr7" version="21.3.8" type="device">
  <diagram id="NzLRn3iqy3p8YHrq8D9a" name="Page-1">
    <mxGraphModel dx="2261" dy="739" grid="1" gridSize="10" guides="1" tooltips="1" connect="1" arrows="1" fold="1" page="1" pageScale="1" pageWidth="827" pageHeight="1169" math="0" shadow="0">
      <root>
        <mxCell id="0" />
        <mxCell id="1" parent="0" />
        <mxCell id="P1NwhQS9--uP2AlyeVF7-1" value="" style="rounded=0;whiteSpace=wrap;html=1;fillColor=none;dashed=1;" parent="1" vertex="1">
          <mxGeometry x="-810" y="180" width="310" height="130" as="geometry" />
        </mxCell>
        <mxCell id="P1NwhQS9--uP2AlyeVF7-7" value="Kafka" style="rounded=0;whiteSpace=wrap;html=1;fillColor=#d5e8d4;strokeColor=#82b366;" parent="1" vertex="1">
          <mxGeometry x="-720" y="200" width="120" height="30" as="geometry" />
        </mxCell>
        <mxCell id="P1NwhQS9--uP2AlyeVF7-8" value="Standby" style="text;html=1;strokeColor=none;fillColor=none;align=center;verticalAlign=middle;whiteSpace=wrap;rounded=0;dashed=1;" parent="1" vertex="1">
          <mxGeometry x="-675" y="140" width="60" height="30" as="geometry" />
        </mxCell>
        <mxCell id="P1NwhQS9--uP2AlyeVF7-9" value="" style="ellipse;whiteSpace=wrap;html=1;aspect=fixed;dashed=1;fillColor=#d5e8d4;strokeColor=none;" parent="1" vertex="1">
          <mxGeometry x="-190" y="147.5" width="15" height="15" as="geometry" />
        </mxCell>
        <mxCell id="P1NwhQS9--uP2AlyeVF7-11" value="" style="rounded=0;whiteSpace=wrap;html=1;fillColor=none;dashed=1;" parent="1" vertex="1">
          <mxGeometry x="-317" y="180" width="297" height="110" as="geometry" />
        </mxCell>
        <mxCell id="P1NwhQS9--uP2AlyeVF7-13" value="Kafka" style="rounded=0;whiteSpace=wrap;html=1;fillColor=#d5e8d4;strokeColor=#82b366;dashed=1;" parent="1" vertex="1">
          <mxGeometry x="-227" y="200" width="120" height="30" as="geometry" />
        </mxCell>
        <mxCell id="P1NwhQS9--uP2AlyeVF7-18" value="Active" style="text;html=1;strokeColor=none;fillColor=none;align=center;verticalAlign=middle;whiteSpace=wrap;rounded=0;dashed=1;" parent="1" vertex="1">
          <mxGeometry x="-182" y="140" width="60" height="30" as="geometry" />
        </mxCell>
        <mxCell id="P1NwhQS9--uP2AlyeVF7-19" value="" style="ellipse;whiteSpace=wrap;html=1;aspect=fixed;dashed=1;fillColor=#ffe6cc;strokeColor=none;" parent="1" vertex="1">
          <mxGeometry x="-690" y="147.5" width="15" height="15" as="geometry" />
        </mxCell>
        <mxCell id="P1NwhQS9--uP2AlyeVF7-30" value="&lt;span&gt;2.&lt;/span&gt; Scale up Mirror Maker" style="edgeStyle=orthogonalEdgeStyle;rounded=0;orthogonalLoop=1;jettySize=auto;html=1;entryX=0.5;entryY=1;entryDx=0;entryDy=0;fontStyle=1" parent="1" source="P1NwhQS9--uP2AlyeVF7-20" target="YTjeazvEZnsc9pZp44G5-1" edge="1">
          <mxGeometry relative="1" as="geometry">
            <mxPoint x="-660" y="310" as="targetPoint" />
          </mxGeometry>
        </mxCell>
        <mxCell id="P1NwhQS9--uP2AlyeVF7-20" value="Kafka Operator" style="rounded=0;whiteSpace=wrap;html=1;fillColor=#e1d5e7;strokeColor=#9673a6;" parent="1" vertex="1">
          <mxGeometry x="-720" y="380" width="120" height="30" as="geometry" />
        </mxCell>
        <mxCell id="P1NwhQS9--uP2AlyeVF7-29" value="&lt;span&gt;1.&lt;/span&gt; You are Standby" style="edgeStyle=orthogonalEdgeStyle;rounded=0;orthogonalLoop=1;jettySize=auto;html=1;entryX=0.5;entryY=1;entryDx=0;entryDy=0;fontStyle=1" parent="1" source="P1NwhQS9--uP2AlyeVF7-22" target="P1NwhQS9--uP2AlyeVF7-20" edge="1">
          <mxGeometry relative="1" as="geometry" />
        </mxCell>
        <mxCell id="P1NwhQS9--uP2AlyeVF7-22" value="Deploy Job" style="rounded=0;whiteSpace=wrap;html=1;fillColor=#f5f5f5;fontColor=#333333;strokeColor=#666666;" parent="1" vertex="1">
          <mxGeometry x="-473" y="429" width="120" height="30" as="geometry" />
        </mxCell>
        <mxCell id="P1NwhQS9--uP2AlyeVF7-24" value="Kafka Operator" style="rounded=0;whiteSpace=wrap;html=1;fillColor=#e1d5e7;strokeColor=#9673a6;" parent="1" vertex="1">
          <mxGeometry x="-227" y="380" width="120" height="30" as="geometry" />
        </mxCell>
        <mxCell id="P1NwhQS9--uP2AlyeVF7-32" value="" style="endArrow=none;dashed=1;html=1;rounded=0;" parent="1" edge="1">
          <mxGeometry width="50" height="50" relative="1" as="geometry">
            <mxPoint x="-790" y="500" as="sourcePoint" />
            <mxPoint x="-19.999999999999773" y="500" as="targetPoint" />
          </mxGeometry>
        </mxCell>
        <mxCell id="YTjeazvEZnsc9pZp44G5-2" value="&lt;b&gt;4. Write replicated data&lt;/b&gt;" style="edgeStyle=orthogonalEdgeStyle;rounded=0;orthogonalLoop=1;jettySize=auto;html=1;entryX=0.5;entryY=1;entryDx=0;entryDy=0;" parent="1" source="YTjeazvEZnsc9pZp44G5-1" target="P1NwhQS9--uP2AlyeVF7-7" edge="1">
          <mxGeometry relative="1" as="geometry" />
        </mxCell>
        <mxCell id="HPWiyaOCb3C6tJ4UGTQ_-2" value="3. read remote topics" style="edgeStyle=orthogonalEdgeStyle;rounded=0;orthogonalLoop=1;jettySize=auto;html=1;entryX=0;entryY=0.5;entryDx=0;entryDy=0;fontStyle=1" parent="1" source="YTjeazvEZnsc9pZp44G5-1" target="P1NwhQS9--uP2AlyeVF7-13" edge="1">
          <mxGeometry relative="1" as="geometry" />
        </mxCell>
        <mxCell id="YTjeazvEZnsc9pZp44G5-1" value="Mirror Maker" style="rounded=0;whiteSpace=wrap;html=1;fillColor=#d5e8d4;strokeColor=#82b366;" parent="1" vertex="1">
          <mxGeometry x="-720" y="270" width="120" height="30" as="geometry" />
        </mxCell>
        <mxCell id="YTjeazvEZnsc9pZp44G5-3" value="Mirror maker" style="rounded=0;whiteSpace=wrap;html=1;fillColor=#f5f5f5;strokeColor=#666666;fontColor=#333333;dashed=1;" parent="1" vertex="1">
          <mxGeometry x="-227" y="250" width="120" height="30" as="geometry" />
        </mxCell>
        <mxCell id="YTjeazvEZnsc9pZp44G5-4" value="Deploy" style="text;html=1;align=center;verticalAlign=middle;resizable=0;points=[];autosize=1;strokeColor=none;fillColor=none;fontStyle=1" parent="1" vertex="1">
          <mxGeometry x="-450" y="20" width="60" height="20" as="geometry" />
        </mxCell>
        <mxCell id="YTjeazvEZnsc9pZp44G5-28" value="" style="rounded=0;whiteSpace=wrap;html=1;fillColor=none;dashed=1;" parent="1" vertex="1">
          <mxGeometry x="-804.5" y="695" width="310" height="130" as="geometry" />
        </mxCell>
        <mxCell id="YTjeazvEZnsc9pZp44G5-29" value="Kafka" style="rounded=0;whiteSpace=wrap;html=1;fillColor=#d5e8d4;strokeColor=#82b366;dashed=1;gradientDirection=west;" parent="1" vertex="1">
          <mxGeometry x="-714.5" y="715" width="120" height="30" as="geometry" />
        </mxCell>
        <mxCell id="YTjeazvEZnsc9pZp44G5-30" value="&lt;span style=&quot;font-weight: 700;&quot;&gt;Active &amp;gt; Standby&lt;/span&gt;" style="text;html=1;strokeColor=none;fillColor=none;align=center;verticalAlign=middle;whiteSpace=wrap;rounded=0;dashed=1;" parent="1" vertex="1">
          <mxGeometry x="-201.5" y="655" width="131.5" height="30" as="geometry" />
        </mxCell>
        <mxCell id="YTjeazvEZnsc9pZp44G5-31" value="" style="ellipse;whiteSpace=wrap;html=1;aspect=fixed;dashed=1;fillColor=#fff2cc;strokeColor=#d6b656;" parent="1" vertex="1">
          <mxGeometry x="-221.5" y="662.5" width="15" height="15" as="geometry" />
        </mxCell>
        <mxCell id="YTjeazvEZnsc9pZp44G5-33" value="" style="rounded=0;whiteSpace=wrap;html=1;fillColor=none;dashed=1;" parent="1" vertex="1">
          <mxGeometry x="-311.5" y="695" width="291.5" height="125" as="geometry" />
        </mxCell>
        <mxCell id="YTjeazvEZnsc9pZp44G5-34" value="Kafka" style="rounded=0;whiteSpace=wrap;html=1;fillColor=#d5e8d4;strokeColor=#82b366;gradientDirection=west;" parent="1" vertex="1">
          <mxGeometry x="-221.5" y="710" width="120" height="30" as="geometry" />
        </mxCell>
        <mxCell id="YTjeazvEZnsc9pZp44G5-35" value="&lt;span style=&quot;font-weight: 700;&quot;&gt;Standby &amp;gt; Active&lt;/span&gt;" style="text;html=1;strokeColor=none;fillColor=none;align=center;verticalAlign=middle;whiteSpace=wrap;rounded=0;dashed=1;" parent="1" vertex="1">
          <mxGeometry x="-674.5" y="650" width="114.5" height="30" as="geometry" />
        </mxCell>
        <mxCell id="YTjeazvEZnsc9pZp44G5-36" value="" style="ellipse;whiteSpace=wrap;html=1;aspect=fixed;dashed=1;fillColor=#d5e8d4;strokeColor=#82b366;" parent="1" vertex="1">
          <mxGeometry x="-694.5" y="657.5" width="15" height="15" as="geometry" />
        </mxCell>
        <mxCell id="YTjeazvEZnsc9pZp44G5-37" value="&lt;b&gt;2. check replication&amp;nbsp;&lt;br&gt;lag is 0&lt;br&gt;&lt;/b&gt;" style="edgeStyle=orthogonalEdgeStyle;rounded=0;orthogonalLoop=1;jettySize=auto;html=1;entryX=0;entryY=0.5;entryDx=0;entryDy=0;exitX=0.126;exitY=0.033;exitDx=0;exitDy=0;exitPerimeter=0;" parent="1" source="YTjeazvEZnsc9pZp44G5-38" target="YTjeazvEZnsc9pZp44G5-29" edge="1">
          <mxGeometry x="-0.2165" relative="1" as="geometry">
            <mxPoint x="-654.5" y="825" as="targetPoint" />
            <mxPoint x="-699" y="890" as="sourcePoint" />
            <Array as="points">
              <mxPoint x="-699" y="860" />
              <mxPoint x="-760" y="860" />
              <mxPoint x="-760" y="730" />
            </Array>
            <mxPoint as="offset" />
          </mxGeometry>
        </mxCell>
        <mxCell id="YTjeazvEZnsc9pZp44G5-38" value="Kafka Operator" style="rounded=0;whiteSpace=wrap;html=1;fillColor=#e1d5e7;strokeColor=#9673a6;" parent="1" vertex="1">
          <mxGeometry x="-714.5" y="895" width="120" height="30" as="geometry" />
        </mxCell>
        <mxCell id="YTjeazvEZnsc9pZp44G5-39" value="&lt;span&gt;4.&lt;/span&gt; You are StandBy" style="edgeStyle=orthogonalEdgeStyle;rounded=0;orthogonalLoop=1;jettySize=auto;html=1;entryX=0.5;entryY=1;entryDx=0;entryDy=0;fontStyle=1" parent="1" source="YTjeazvEZnsc9pZp44G5-41" target="YTjeazvEZnsc9pZp44G5-43" edge="1">
          <mxGeometry x="-0.2308" relative="1" as="geometry">
            <mxPoint as="offset" />
          </mxGeometry>
        </mxCell>
        <mxCell id="YTjeazvEZnsc9pZp44G5-40" value="&lt;span&gt;1.&lt;/span&gt; You are Active" style="edgeStyle=orthogonalEdgeStyle;rounded=0;orthogonalLoop=1;jettySize=auto;html=1;entryX=0.5;entryY=1;entryDx=0;entryDy=0;fontStyle=1" parent="1" source="YTjeazvEZnsc9pZp44G5-41" target="YTjeazvEZnsc9pZp44G5-38" edge="1">
          <mxGeometry relative="1" as="geometry" />
        </mxCell>
        <mxCell id="YTjeazvEZnsc9pZp44G5-41" value="Site manager" style="rounded=0;whiteSpace=wrap;html=1;fillColor=#f5f5f5;fontColor=#333333;strokeColor=#666666;" parent="1" vertex="1">
          <mxGeometry x="-467.5" y="944" width="120" height="30" as="geometry" />
        </mxCell>
        <mxCell id="YTjeazvEZnsc9pZp44G5-42" value="&lt;b&gt;5.&lt;/b&gt; Scale up" style="edgeStyle=orthogonalEdgeStyle;rounded=0;orthogonalLoop=1;jettySize=auto;html=1;entryX=0.138;entryY=1.043;entryDx=0;entryDy=0;entryPerimeter=0;exitX=0.138;exitY=-0.005;exitDx=0;exitDy=0;exitPerimeter=0;" parent="1" source="YTjeazvEZnsc9pZp44G5-43" target="YTjeazvEZnsc9pZp44G5-48" edge="1">
          <mxGeometry relative="1" as="geometry">
            <mxPoint x="-161.5" y="825" as="targetPoint" />
            <mxPoint x="-200" y="890" as="sourcePoint" />
          </mxGeometry>
        </mxCell>
        <mxCell id="YTjeazvEZnsc9pZp44G5-43" value="Kafka Operator" style="rounded=0;whiteSpace=wrap;html=1;fillColor=#e1d5e7;strokeColor=#9673a6;" parent="1" vertex="1">
          <mxGeometry x="-221.5" y="895" width="120" height="30" as="geometry" />
        </mxCell>
        <mxCell id="YTjeazvEZnsc9pZp44G5-47" value="Mirror Maker" style="rounded=0;whiteSpace=wrap;html=1;fillColor=#F5F5F5;strokeColor=#666666;fontColor=#333333;dashed=1;gradientDirection=west;gradientColor=#D5E8D4;" parent="1" vertex="1">
          <mxGeometry x="-714.5" y="785" width="120" height="30" as="geometry" />
        </mxCell>
        <mxCell id="HPWiyaOCb3C6tJ4UGTQ_-8" value="6. read remote topics" style="edgeStyle=orthogonalEdgeStyle;rounded=0;orthogonalLoop=1;jettySize=auto;html=1;entryX=1;entryY=0.5;entryDx=0;entryDy=0;endArrow=classic;endFill=1;fontStyle=1" parent="1" source="YTjeazvEZnsc9pZp44G5-48" target="YTjeazvEZnsc9pZp44G5-29" edge="1">
          <mxGeometry relative="1" as="geometry" />
        </mxCell>
        <mxCell id="HPWiyaOCb3C6tJ4UGTQ_-9" value="7. write replicated data" style="edgeStyle=orthogonalEdgeStyle;rounded=0;orthogonalLoop=1;jettySize=auto;html=1;entryX=0.5;entryY=1;entryDx=0;entryDy=0;endArrow=classic;endFill=1;" parent="1" source="YTjeazvEZnsc9pZp44G5-48" target="YTjeazvEZnsc9pZp44G5-34" edge="1">
          <mxGeometry relative="1" as="geometry" />
        </mxCell>
        <mxCell id="YTjeazvEZnsc9pZp44G5-48" value="Mirror Maker" style="rounded=0;whiteSpace=wrap;html=1;fillColor=#d5e8d4;strokeColor=#82b366;gradientColor=#F5F5F5;gradientDirection=west;" parent="1" vertex="1">
          <mxGeometry x="-221.5" y="780" width="120" height="30" as="geometry" />
        </mxCell>
        <mxCell id="YTjeazvEZnsc9pZp44G5-50" value="&lt;span&gt;3.&lt;/span&gt;&amp;nbsp;Scale Down" style="edgeStyle=orthogonalEdgeStyle;rounded=0;orthogonalLoop=1;jettySize=auto;html=1;entryX=0.829;entryY=0.978;entryDx=0;entryDy=0;entryPerimeter=0;exitX=0.835;exitY=0;exitDx=0;exitDy=0;exitPerimeter=0;fontStyle=1" parent="1" source="YTjeazvEZnsc9pZp44G5-38" target="YTjeazvEZnsc9pZp44G5-47" edge="1">
          <mxGeometry relative="1" as="geometry">
            <mxPoint x="-670.54" y="824.76" as="targetPoint" />
            <mxPoint x="-615" y="890" as="sourcePoint" />
          </mxGeometry>
        </mxCell>
        <mxCell id="DNYtK0NeoMBdWzHgn3Og-1" value="LEFT" style="text;html=1;strokeColor=none;fillColor=none;align=center;verticalAlign=middle;whiteSpace=wrap;rounded=0;fontStyle=1" parent="1" vertex="1">
          <mxGeometry x="-690" y="20" width="60" height="30" as="geometry" />
        </mxCell>
        <mxCell id="DNYtK0NeoMBdWzHgn3Og-2" value="RIGHT" style="text;html=1;strokeColor=none;fillColor=none;align=center;verticalAlign=middle;whiteSpace=wrap;rounded=0;fontStyle=1" parent="1" vertex="1">
          <mxGeometry x="-206" y="20" width="60" height="30" as="geometry" />
        </mxCell>
        <mxCell id="DNYtK0NeoMBdWzHgn3Og-3" value="*failed if fails" style="text;html=1;align=center;verticalAlign=middle;resizable=0;points=[];autosize=1;strokeColor=none;fillColor=none;" parent="1" vertex="1">
          <mxGeometry x="-100" y="925" width="90" height="30" as="geometry" />
        </mxCell>
        <mxCell id="DNYtK0NeoMBdWzHgn3Og-5" value="health: up" style="text;html=1;strokeColor=none;fillColor=none;align=center;verticalAlign=middle;whiteSpace=wrap;rounded=0;fontStyle=1" parent="1" vertex="1">
          <mxGeometry x="-804.5" y="440" width="60" height="30" as="geometry" />
        </mxCell>
        <mxCell id="DNYtK0NeoMBdWzHgn3Og-6" value="health: up" style="text;html=1;strokeColor=none;fillColor=none;align=center;verticalAlign=middle;whiteSpace=wrap;rounded=0;fontStyle=1" parent="1" vertex="1">
          <mxGeometry x="-80" y="440" width="60" height="30" as="geometry" />
        </mxCell>
        <mxCell id="DNYtK0NeoMBdWzHgn3Og-7" value="health: up" style="text;html=1;strokeColor=none;fillColor=none;align=center;verticalAlign=middle;whiteSpace=wrap;rounded=0;fontStyle=1" parent="1" vertex="1">
          <mxGeometry x="-804.5" y="1010" width="60" height="30" as="geometry" />
        </mxCell>
        <mxCell id="DNYtK0NeoMBdWzHgn3Og-8" value="health: up" style="text;html=1;strokeColor=none;fillColor=none;align=center;verticalAlign=middle;whiteSpace=wrap;rounded=0;fontStyle=1" parent="1" vertex="1">
          <mxGeometry x="-85" y="1010" width="60" height="30" as="geometry" />
        </mxCell>
        <mxCell id="DNYtK0NeoMBdWzHgn3Og-10" value="Deploy Job" style="rounded=0;whiteSpace=wrap;html=1;fillColor=#f5f5f5;fontColor=#333333;strokeColor=#666666;" parent="1" vertex="1">
          <mxGeometry x="-472.5" y="429" width="120" height="30" as="geometry" />
        </mxCell>
        <mxCell id="DNYtK0NeoMBdWzHgn3Og-12" value="Kafka Operator" style="rounded=0;whiteSpace=wrap;html=1;fillColor=#e1d5e7;strokeColor=#9673a6;" parent="1" vertex="1">
          <mxGeometry x="-719.5" y="380" width="120" height="30" as="geometry" />
        </mxCell>
        <mxCell id="DNYtK0NeoMBdWzHgn3Og-13" value="Kafka Operator" style="rounded=0;whiteSpace=wrap;html=1;fillColor=#e1d5e7;strokeColor=#9673a6;" parent="1" vertex="1">
          <mxGeometry x="-226.5" y="380" width="120" height="30" as="geometry" />
        </mxCell>
        <mxCell id="HPWiyaOCb3C6tJ4UGTQ_-5" style="edgeStyle=orthogonalEdgeStyle;rounded=0;orthogonalLoop=1;jettySize=auto;html=1;endArrow=none;endFill=0;" parent="1" source="HPWiyaOCb3C6tJ4UGTQ_-4" target="DNYtK0NeoMBdWzHgn3Og-12" edge="1">
          <mxGeometry relative="1" as="geometry" />
        </mxCell>
        <mxCell id="HPWiyaOCb3C6tJ4UGTQ_-4" value="KMM CR&lt;br&gt;topics: arango topic" style="rounded=0;whiteSpace=wrap;html=1;fillColor=#dae8fc;strokeColor=#6c8ebf;" parent="1" vertex="1">
          <mxGeometry x="-560" y="340" width="112.25" height="50" as="geometry" />
        </mxCell>
        <mxCell id="HPWiyaOCb3C6tJ4UGTQ_-7" style="edgeStyle=orthogonalEdgeStyle;rounded=0;orthogonalLoop=1;jettySize=auto;html=1;entryX=0;entryY=0.25;entryDx=0;entryDy=0;endArrow=none;endFill=0;" parent="1" source="HPWiyaOCb3C6tJ4UGTQ_-6" target="DNYtK0NeoMBdWzHgn3Og-13" edge="1">
          <mxGeometry relative="1" as="geometry" />
        </mxCell>
        <mxCell id="HPWiyaOCb3C6tJ4UGTQ_-6" value="KMM CR&lt;br&gt;topics: arango topic" style="rounded=0;whiteSpace=wrap;html=1;fillColor=#dae8fc;strokeColor=#6c8ebf;" parent="1" vertex="1">
          <mxGeometry x="-369.5" y="340" width="112.25" height="50" as="geometry" />
        </mxCell>
        <mxCell id="HPWiyaOCb3C6tJ4UGTQ_-10" value="" style="rounded=0;whiteSpace=wrap;html=1;fillColor=none;dashed=1;" parent="1" vertex="1">
          <mxGeometry x="-804.75" y="1165" width="310" height="130" as="geometry" />
        </mxCell>
        <mxCell id="HPWiyaOCb3C6tJ4UGTQ_-11" value="Kafka" style="rounded=0;whiteSpace=wrap;html=1;fillColor=#d5e8d4;strokeColor=#82b366;dashed=1;gradientDirection=west;" parent="1" vertex="1">
          <mxGeometry x="-714.75" y="1185" width="120" height="30" as="geometry" />
        </mxCell>
        <mxCell id="HPWiyaOCb3C6tJ4UGTQ_-12" value="&lt;span style=&quot;font-weight: 700;&quot;&gt;Active &amp;gt; Standby&lt;/span&gt;" style="text;html=1;strokeColor=none;fillColor=none;align=center;verticalAlign=middle;whiteSpace=wrap;rounded=0;dashed=1;" parent="1" vertex="1">
          <mxGeometry x="-201.75" y="1125" width="131.5" height="30" as="geometry" />
        </mxCell>
        <mxCell id="HPWiyaOCb3C6tJ4UGTQ_-13" value="" style="ellipse;whiteSpace=wrap;html=1;aspect=fixed;dashed=1;fillColor=#fff2cc;strokeColor=#d6b656;" parent="1" vertex="1">
          <mxGeometry x="-221.75" y="1132.5" width="15" height="15" as="geometry" />
        </mxCell>
        <mxCell id="HPWiyaOCb3C6tJ4UGTQ_-14" value="" style="rounded=0;whiteSpace=wrap;html=1;fillColor=none;dashed=1;" parent="1" vertex="1">
          <mxGeometry x="-311.75" y="1165" width="291.5" height="125" as="geometry" />
        </mxCell>
        <mxCell id="HPWiyaOCb3C6tJ4UGTQ_-15" value="Kafka" style="rounded=0;whiteSpace=wrap;html=1;fillColor=#d5e8d4;strokeColor=#82b366;gradientDirection=west;" parent="1" vertex="1">
          <mxGeometry x="-221.75" y="1180" width="120" height="30" as="geometry" />
        </mxCell>
        <mxCell id="HPWiyaOCb3C6tJ4UGTQ_-16" value="&lt;span style=&quot;font-weight: 700;&quot;&gt;Standby &amp;gt; Active&lt;/span&gt;" style="text;html=1;strokeColor=none;fillColor=none;align=center;verticalAlign=middle;whiteSpace=wrap;rounded=0;dashed=1;" parent="1" vertex="1">
          <mxGeometry x="-674.75" y="1120" width="114.5" height="30" as="geometry" />
        </mxCell>
        <mxCell id="HPWiyaOCb3C6tJ4UGTQ_-17" value="" style="ellipse;whiteSpace=wrap;html=1;aspect=fixed;dashed=1;fillColor=#d5e8d4;strokeColor=#82b366;" parent="1" vertex="1">
          <mxGeometry x="-694.75" y="1127.5" width="15" height="15" as="geometry" />
        </mxCell>
        <mxCell id="HPWiyaOCb3C6tJ4UGTQ_-19" value="Kafka Operator" style="rounded=0;whiteSpace=wrap;html=1;fillColor=#e1d5e7;strokeColor=#9673a6;" parent="1" vertex="1">
          <mxGeometry x="-714.75" y="1365" width="120" height="30" as="geometry" />
        </mxCell>
        <mxCell id="HPWiyaOCb3C6tJ4UGTQ_-21" value="&lt;span&gt;1.&lt;/span&gt; You are Active" style="edgeStyle=orthogonalEdgeStyle;rounded=0;orthogonalLoop=1;jettySize=auto;html=1;entryX=0.5;entryY=1;entryDx=0;entryDy=0;fontStyle=1" parent="1" source="HPWiyaOCb3C6tJ4UGTQ_-22" target="HPWiyaOCb3C6tJ4UGTQ_-19" edge="1">
          <mxGeometry relative="1" as="geometry" />
        </mxCell>
        <mxCell id="HPWiyaOCb3C6tJ4UGTQ_-22" value="Site manager" style="rounded=0;whiteSpace=wrap;html=1;fillColor=#f5f5f5;fontColor=#333333;strokeColor=#666666;" parent="1" vertex="1">
          <mxGeometry x="-467.75" y="1414" width="120" height="30" as="geometry" />
        </mxCell>
        <mxCell id="HPWiyaOCb3C6tJ4UGTQ_-23" value="&lt;b&gt;5.&lt;/b&gt; Scale up" style="edgeStyle=orthogonalEdgeStyle;rounded=0;orthogonalLoop=1;jettySize=auto;html=1;entryX=0.138;entryY=1.043;entryDx=0;entryDy=0;entryPerimeter=0;exitX=0.138;exitY=-0.005;exitDx=0;exitDy=0;exitPerimeter=0;" parent="1" source="HPWiyaOCb3C6tJ4UGTQ_-24" target="HPWiyaOCb3C6tJ4UGTQ_-28" edge="1">
          <mxGeometry relative="1" as="geometry">
            <mxPoint x="-161.75" y="1295" as="targetPoint" />
            <mxPoint x="-200.25" y="1360" as="sourcePoint" />
          </mxGeometry>
        </mxCell>
        <mxCell id="HPWiyaOCb3C6tJ4UGTQ_-24" value="Kafka Operator" style="rounded=0;whiteSpace=wrap;html=1;fillColor=#e1d5e7;strokeColor=#9673a6;" parent="1" vertex="1">
          <mxGeometry x="-221.75" y="1365" width="120" height="30" as="geometry" />
        </mxCell>
        <mxCell id="HPWiyaOCb3C6tJ4UGTQ_-25" value="Mirror Maker" style="rounded=0;whiteSpace=wrap;html=1;fillColor=#F5F5F5;strokeColor=#666666;fontColor=#333333;dashed=1;gradientDirection=west;gradientColor=#D5E8D4;" parent="1" vertex="1">
          <mxGeometry x="-714.75" y="1255" width="120" height="30" as="geometry" />
        </mxCell>
        <mxCell id="HPWiyaOCb3C6tJ4UGTQ_-27" value="6. write replicated data" style="edgeStyle=orthogonalEdgeStyle;rounded=0;orthogonalLoop=1;jettySize=auto;html=1;entryX=0.5;entryY=1;entryDx=0;entryDy=0;endArrow=classic;endFill=1;" parent="1" source="HPWiyaOCb3C6tJ4UGTQ_-28" target="HPWiyaOCb3C6tJ4UGTQ_-15" edge="1">
          <mxGeometry relative="1" as="geometry" />
        </mxCell>
        <mxCell id="HPWiyaOCb3C6tJ4UGTQ_-28" value="Mirror Maker" style="rounded=0;whiteSpace=wrap;html=1;fillColor=#d5e8d4;strokeColor=#82b366;gradientColor=#F5F5F5;gradientDirection=west;" parent="1" vertex="1">
          <mxGeometry x="-221.75" y="1250" width="120" height="30" as="geometry" />
        </mxCell>
        <mxCell id="HPWiyaOCb3C6tJ4UGTQ_-29" value="&lt;span&gt;2.&lt;/span&gt;&amp;nbsp;Scale Down" style="edgeStyle=orthogonalEdgeStyle;rounded=0;orthogonalLoop=1;jettySize=auto;html=1;entryX=0.829;entryY=0.978;entryDx=0;entryDy=0;entryPerimeter=0;exitX=0.835;exitY=0;exitDx=0;exitDy=0;exitPerimeter=0;fontStyle=1" parent="1" source="HPWiyaOCb3C6tJ4UGTQ_-19" target="HPWiyaOCb3C6tJ4UGTQ_-25" edge="1">
          <mxGeometry relative="1" as="geometry">
            <mxPoint x="-670.79" y="1294.76" as="targetPoint" />
            <mxPoint x="-615.25" y="1360" as="sourcePoint" />
          </mxGeometry>
        </mxCell>
        <mxCell id="HPWiyaOCb3C6tJ4UGTQ_-31" value="health: up" style="text;html=1;strokeColor=none;fillColor=none;align=center;verticalAlign=middle;whiteSpace=wrap;rounded=0;fontStyle=1" parent="1" vertex="1">
          <mxGeometry x="-804.75" y="1480" width="60" height="30" as="geometry" />
        </mxCell>
        <mxCell id="HPWiyaOCb3C6tJ4UGTQ_-32" value="health: up" style="text;html=1;strokeColor=none;fillColor=none;align=center;verticalAlign=middle;whiteSpace=wrap;rounded=0;fontStyle=1" parent="1" vertex="1">
          <mxGeometry x="-85.25" y="1480" width="60" height="30" as="geometry" />
        </mxCell>
        <mxCell id="HPWiyaOCb3C6tJ4UGTQ_-34" value="Failover" style="text;html=1;align=center;verticalAlign=middle;resizable=0;points=[];autosize=1;strokeColor=none;fillColor=none;fontStyle=1" parent="1" vertex="1">
          <mxGeometry x="-443" y="1070" width="60" height="20" as="geometry" />
        </mxCell>
        <mxCell id="HPWiyaOCb3C6tJ4UGTQ_-35" value="Switchover" style="text;html=1;align=center;verticalAlign=middle;resizable=0;points=[];autosize=1;strokeColor=none;fillColor=none;fontStyle=1" parent="1" vertex="1">
          <mxGeometry x="-453" y="575" width="80" height="20" as="geometry" />
        </mxCell>
        <mxCell id="HPWiyaOCb3C6tJ4UGTQ_-36" value="" style="shape=cross;whiteSpace=wrap;html=1;fillColor=#f8cecc;gradientDirection=west;strokeColor=#b85450;rotation=-45;" parent="1" vertex="1">
          <mxGeometry x="-311.5" y="1146" width="249" height="249" as="geometry" />
        </mxCell>
      </root>
    </mxGraphModel>
  </diagram>
</mxfile>
